<?xml version="1.0" encoding="iso-8859-1"?>
<!-- Generator: Adobe Illustrator 19.0.0, SVG Export Plug-In . SVG Version: 6.00 Build 0)  -->
<svg version="1.1" id="Layer_1" xmlns="http://www.w3.org/2000/svg" xmlns:xlink="http://www.w3.org/1999/xlink" x="0px" y="0px"
	 viewBox="0 0 512 512" style="enable-background:new 0 0 512 512;" xml:space="preserve">
<path style="fill:#FF5752;" d="M243.577,506.461c-7.065-7.868-173.004-194.146-173.004-321.035C70.574,83.182,153.756,0,256.001,0
	s185.426,83.182,185.426,185.426c0,126.888-165.939,313.167-173.004,321.035C261.786,513.854,250.199,513.839,243.577,506.461z"/>
<path style="fill:#DB3A3C;" d="M441.426,185.426C441.426,83.182,358.244,0,256.001,0v512c4.552,0,9.106-1.843,12.423-5.539
	C275.487,498.594,441.426,312.315,441.426,185.426z"/>
<path style="fill:#EFEFEF;" d="M256.001,278.719c-51.442,0-93.291-41.851-93.291-93.293s41.851-93.293,93.291-93.293
	s93.291,41.851,93.291,93.293S307.441,278.719,256.001,278.719z"/>
<path style="fill:#C5D8DF;" d="M256.001,92.134v186.585c51.442,0,93.291-41.851,93.291-93.293S307.441,92.134,256.001,92.134z"/>
<g>
</g>
<g>
</g>
<g>
</g>
<g>
</g>
<g>
</g>
<g>
</g>
<g>
</g>
<g>
</g>
<g>
</g>
<g>
</g>
<g>
</g>
<g>
</g>
<g>
</g>
<g>
</g>
<g>
</g>
</svg>
